<svg width="28" height="28" viewBox="0 0 28 28" fill="none" xmlns="http://www.w3.org/2000/svg">
<circle cx="13.9289" cy="14.3642" r="8.99575" fill="#4DA026"/>
<path d="M14 0C6.26801 0 0 6.26801 0 14C0 21.732 6.26801 28 14 28C21.732 28 28 21.732 28 14C28 6.26801 21.732 0 14 0ZM20.5713 20.3246H16.8017C16.7495 20.165 16.6668 20.0184 16.5522 19.885C16.3403 19.6412 16.0516 19.4236 15.6845 19.2349C15.3174 19.0463 14.8952 18.8795 14.4164 18.7344C13.9376 18.5907 13.4428 18.4398 12.9321 18.2846C12.2865 18.0844 11.6364 17.8624 10.9806 17.6172C10.3248 17.3734 9.73427 17.0557 9.21194 16.6668C8.68961 16.278 8.26158 15.7992 7.92787 15.2318C7.59415 14.6645 7.4273 13.9594 7.4273 13.1135V13.0467C7.4273 12.2241 7.58835 11.4783 7.91046 10.8109C8.23256 10.1434 8.678 9.57612 9.24531 9.10892C9.81262 8.64172 10.48 8.28625 11.2476 8.04104C12.0151 7.79728 12.832 7.67396 13.6997 7.67396C14.8111 7.67396 15.9341 7.85242 17.0687 8.2079C18.2033 8.56337 19.2378 9.05379 20.1708 9.67624L18.569 12.5447C17.7231 12.034 16.867 11.6277 16.0008 11.3274C15.1332 11.027 14.3323 10.8776 13.5995 10.8776C12.8204 10.8776 12.2154 11.0445 11.7815 11.3782C11.3477 11.7119 11.1315 12.1341 11.1315 12.6463V12.713C11.1315 13.025 11.2418 13.2963 11.4652 13.5299C11.6872 13.7635 11.9818 13.9753 12.3488 14.164C12.7159 14.3526 13.1381 14.531 13.617 14.6979C14.0943 14.8648 14.5891 15.0258 15.1013 15.1811C15.7455 15.3813 16.3911 15.6149 17.0368 15.8819C17.681 16.1488 18.2657 16.4767 18.7881 16.8656C19.3104 17.2544 19.7384 17.7274 20.0721 18.2831C20.4058 18.8388 20.5727 19.5179 20.5727 20.3188V20.3246H20.5713Z" fill="#6BEB30"/>
</svg>
