<svg id="Layer_1" data-name="Layer 1" xmlns="http://www.w3.org/2000/svg" viewBox="0 0 883.86 213.52"><defs><style>.cls-1{font-size:208.55px;font-family:Gotham-BoldItalic, Gotham;font-weight:700;font-style:italic;letter-spacing:-0.08em;}.cls-1,.cls-2{fill:#fff;}</style></defs><text class="cls-1" transform="translate(360.27 165.48)">t</text><path class="cls-2" d="M233.36,134.82a54.8,54.8,0,0,1-11.47,18A47.65,47.65,0,0,1,205.42,164a50.51,50.51,0,0,1-19.08,3.75q-13.56,0-22.53-5.83A58.13,58.13,0,0,1,149,148.38l.21,50.47H123.77V55.37h25.45V73.72a54.74,54.74,0,0,1,15-14.7q8.94-6,22.26-6a49.32,49.32,0,0,1,18.93,3.76A47.88,47.88,0,0,1,221.72,68a56.41,56.41,0,0,1,11.55,18,63.86,63.86,0,0,1,4.37,24.4A65,65,0,0,1,233.36,134.82Zm-23.67-39.1a33.82,33.82,0,0,0-6.77-11.16,30.05,30.05,0,0,0-10-7.09,30.37,30.37,0,0,0-12.2-2.5,31,31,0,0,0-12.31,2.5,30.06,30.06,0,0,0-10.22,7.2,35.62,35.62,0,0,0-7,11.16,38.67,38.67,0,0,0-2.61,14.59A38.69,38.69,0,0,0,151.2,125a35.62,35.62,0,0,0,7,11.16,29.9,29.9,0,0,0,10.22,7.19,30.87,30.87,0,0,0,12.31,2.51,30.21,30.21,0,0,0,12.2-2.51,29.77,29.77,0,0,0,10-7.09,33.67,33.67,0,0,0,6.77-11.15,41,41,0,0,0,2.51-14.71A41,41,0,0,0,209.69,95.72Z"/><path class="cls-2" d="M360.79,132.74a57.18,57.18,0,0,1-31,30.65,62.69,62.69,0,0,1-46.82.11,56.5,56.5,0,0,1-30.76-30.45,58.42,58.42,0,0,1,.1-44.63,57.43,57.43,0,0,1,12.31-18.35,58.29,58.29,0,0,1,18.56-12.41,59.07,59.07,0,0,1,23.46-4.59,60.28,60.28,0,0,1,23.46,4.49,56.63,56.63,0,0,1,35.14,52.86A56,56,0,0,1,360.79,132.74ZM337.34,97.08a35.94,35.94,0,0,0-6.94-11.37A32.83,32.83,0,0,0,319.83,78a32.61,32.61,0,0,0-37.62,7.62,33,33,0,0,0-6.63,11.15,40.25,40.25,0,0,0-2.28,13.66,38.79,38.79,0,0,0,2.49,13.87,34.28,34.28,0,0,0,6.94,11.37,33.2,33.2,0,0,0,10.57,7.61,31.5,31.5,0,0,0,13.37,2.82,32.54,32.54,0,0,0,13.78-2.82,32.09,32.09,0,0,0,10.46-7.61,33,33,0,0,0,6.64-11.16,40.41,40.41,0,0,0,2.28-13.66A38,38,0,0,0,337.34,97.08Z"/><rect class="cls-2" x="457.65" y="14.49" width="27.32" height="23.98" rx="11.99"/><rect class="cls-2" x="458.7" y="55.37" width="25.44" height="110.11"/><path class="cls-2" d="M582.78,148.17a29.83,29.83,0,0,1-8.65,10.74,38.87,38.87,0,0,1-13,6.47A57.08,57.08,0,0,1,545,167.57,74.13,74.13,0,0,1,521,163.39a77.11,77.11,0,0,1-22.63-12.3L509.58,134a73.17,73.17,0,0,0,18.25,10.11,51.07,51.07,0,0,0,17.83,3.45q8.13,0,12.62-3.24a10.14,10.14,0,0,0,4.48-8.65v-.42a8,8,0,0,0-2-5.42,18,18,0,0,0-5.42-4.07,48,48,0,0,0-7.93-3.13l-9.28-2.81q-6-1.87-12.2-4.17a44,44,0,0,1-11.05-6,30,30,0,0,1-8-9q-3.14-5.33-3.13-13.25v-.41a31.78,31.78,0,0,1,3-14,31.2,31.2,0,0,1,8.35-10.63,37.34,37.34,0,0,1,12.51-6.68A50.49,50.49,0,0,1,543,53.49,69.89,69.89,0,0,1,564,56.83,75.46,75.46,0,0,1,583.41,66l-10,17.94a83.92,83.92,0,0,0-16.06-7.61,46.11,46.11,0,0,0-15-2.82q-7.3,0-11.36,3.13a9.6,9.6,0,0,0-4.07,7.92V85A7.17,7.17,0,0,0,529,90.09a20.58,20.58,0,0,0,5.53,4,60.12,60.12,0,0,0,7.93,3.34q4.47,1.56,9.28,3,6,1.88,12.09,4.38a51,51,0,0,1,11,6.15,30.64,30.64,0,0,1,8,8.87,24.26,24.26,0,0,1,3.13,12.72V133A34.52,34.52,0,0,1,582.78,148.17Z"/><path class="cls-2" d="M630.54,131q0,7.32,3.54,10.56c2.37,2.17,5.7,3.24,10,3.24a34.54,34.54,0,0,0,15.64-3.75v20.65a43.9,43.9,0,0,1-10.21,4.17A48.53,48.53,0,0,1,637,167.36a46.74,46.74,0,0,1-12.77-1.67,26.13,26.13,0,0,1-10.2-5.44,24.15,24.15,0,0,1-6.62-9.93A43.9,43.9,0,0,1,605.1,135V76.85h-14V55.37h14V25.13h25.44V55.37h29.61V76.85H630.54Z"/><path class="cls-2" d="M743.15,165.48V151.92a47,47,0,0,1-14.39,11.27q-8.76,4.58-21.27,4.58a50.66,50.66,0,0,1-15-2.19,37,37,0,0,1-12.4-6.46,31.48,31.48,0,0,1-11.79-25.34v-.42a34.52,34.52,0,0,1,3.34-15.64,30.48,30.48,0,0,1,9.28-11,41.68,41.68,0,0,1,14.18-6.57,69.24,69.24,0,0,1,17.83-2.19,98.7,98.7,0,0,1,17,1.25,103.67,103.67,0,0,1,13.45,3.34V99.79q0-11.48-7-17.52t-20.12-6a67.19,67.19,0,0,0-16.68,1.88,109.45,109.45,0,0,0-14.81,5l-6.88-20.23a115.93,115.93,0,0,1,18.77-6.67,92.68,92.68,0,0,1,23.14-2.5q24.62,0,36.5,12.2t11.89,34.3v65.28Zm.63-46.71a63.57,63.57,0,0,0-11.37-3.13,73.54,73.54,0,0,0-13.87-1.25q-11.88,0-18.56,4.58t-6.67,13.14v.42q0,7.93,6.15,12.1t15.12,4.17a38.63,38.63,0,0,0,11.58-1.67,30.12,30.12,0,0,0,9.28-4.69,21.4,21.4,0,0,0,6.15-7.3,20.53,20.53,0,0,0,2.19-9.49Z"/><path class="cls-2" d="M864.11,148.17a29.86,29.86,0,0,1-8.66,10.74,38.82,38.82,0,0,1-13,6.47,57.13,57.13,0,0,1-16.06,2.19,74.19,74.19,0,0,1-24.09-4.18,77.37,77.37,0,0,1-22.63-12.3L790.91,134a73.12,73.12,0,0,0,18.24,10.11A51.12,51.12,0,0,0,827,147.55q8.13,0,12.61-3.24a10.13,10.13,0,0,0,4.49-8.65v-.42a8,8,0,0,0-2-5.42,17.89,17.89,0,0,0-5.42-4.07,47.54,47.54,0,0,0-7.92-3.13l-9.28-2.81q-6.06-1.87-12.2-4.17a44.22,44.22,0,0,1-11.06-6,30.07,30.07,0,0,1-8-9q-3.13-5.33-3.13-13.25v-.41a31.64,31.64,0,0,1,3-14,31.18,31.18,0,0,1,8.34-10.63A37.49,37.49,0,0,1,809,55.78a50.38,50.38,0,0,1,15.32-2.29,70,70,0,0,1,21.07,3.34A75.39,75.39,0,0,1,864.73,66l-10,17.94a83.36,83.36,0,0,0-16.06-7.61,46.06,46.06,0,0,0-15-2.82q-7.3,0-11.37,3.13a9.59,9.59,0,0,0-4.06,7.92V85a7.17,7.17,0,0,0,2.08,5.11,20.42,20.42,0,0,0,5.53,4,60,60,0,0,0,7.92,3.34q4.49,1.56,9.28,3,6,1.88,12.1,4.38a51,51,0,0,1,11,6.15,30.78,30.78,0,0,1,8,8.87,24.35,24.35,0,0,1,3.12,12.72V133A34.66,34.66,0,0,1,864.11,148.17Z"/><path class="cls-2" d="M36.7,109.69a44.22,44.22,0,0,0,11.06,6q6.15,2.3,12.2,4.17l9.28,2.81a47.54,47.54,0,0,1,7.92,3.13,17.89,17.89,0,0,1,5.42,4.07,8,8,0,0,1,1.57,2.74h23.56v0a24.35,24.35,0,0,0-3.12-12.72,30.78,30.78,0,0,0-8-8.87,51,51,0,0,0-11-6.15q-6.06-2.51-12.1-4.38-4.8-1.45-9.28-3a60,60,0,0,1-7.92-3.34,20.42,20.42,0,0,1-5.53-4A7.17,7.17,0,0,1,48.7,85v-.42a9.59,9.59,0,0,1,4.06-7.92q4.07-3.14,11.37-3.13a46.06,46.06,0,0,1,15,2.82A83.36,83.36,0,0,1,95.2,83.94l10-17.94a75.39,75.39,0,0,0-19.39-9.17,70,70,0,0,0-21.07-3.34,50.38,50.38,0,0,0-15.32,2.29,37.49,37.49,0,0,0-12.52,6.68,31.18,31.18,0,0,0-8.34,10.63,31.64,31.64,0,0,0-3,14v.41q0,7.93,3.13,13.25A30.07,30.07,0,0,0,36.7,109.69Z"/></svg>